<?xml version="1.0" encoding="UTF-8"?>
<svg width="300" height="500" viewBox="0 0 300 500" xmlns="http://www.w3.org/2000/svg">
 <g id="Notes">
 </g>
 <g id="Guides">
  <line id="Capline-S" x1="0" y1="10" x2="300" y2="10" stroke="#27AAE1" stroke-width="0.5"/>
  <line id="Baseline-S" x1="0" y1="110" x2="300" y2="110" stroke="#27AAE1" stroke-width="0.5"/>
  <line id="Capline-M" x1="0" y1="170" x2="300" y2="170" stroke="#27AAE1" stroke-width="0.5"/>
  <line id="Baseline-M" x1="0" y1="270" x2="300" y2="270" stroke="#27AAE1" stroke-width="0.5"/>
  <line id="Capline-L" x1="0" y1="330" x2="300" y2="330" stroke="#27AAE1" stroke-width="0.5"/>
  <line id="Baseline-L" x1="0" y1="430" x2="300" y2="430" stroke="#27AAE1" stroke-width="0.5"/>
 </g>
 <g id="Symbols">
  <g id="Regular-S" transform="matrix(1 0 0 1 100 10)">
   <path class="monochrome-0" d="M30,10 L70,10 L70,38 Q70,58 50,58 Q30,58 30,38 Z"/>
   <path class="monochrome-0" d="M30,14 L18,14 Q8,14 8,24 Q8,44 30,48 L30,40 Q16,37 16,24 Q16,22 18,22 L30,22 Z"/>
   <path class="monochrome-0" d="M70,14 L82,14 Q92,14 92,24 Q92,44 70,48 L70,40 Q84,37 84,24 Q84,22 82,22 L70,22 Z"/>
   <path class="monochrome-0" d="M46,56 L54,56 L54,72 L46,72 Z"/>
   <path class="monochrome-0" d="M32,72 L68,72 Q74,72 74,78 L74,84 Q74,90 68,90 L32,90 Q26,90 26,84 L26,78 Q26,72 32,72 Z"/>
  </g>
  <g id="Regular-M" transform="matrix(1 0 0 1 100 170)">
   <path class="monochrome-0" d="M30,10 L70,10 L70,38 Q70,58 50,58 Q30,58 30,38 Z"/>
   <path class="monochrome-0" d="M30,14 L18,14 Q8,14 8,24 Q8,44 30,48 L30,40 Q16,37 16,24 Q16,22 18,22 L30,22 Z"/>
   <path class="monochrome-0" d="M70,14 L82,14 Q92,14 92,24 Q92,44 70,48 L70,40 Q84,37 84,24 Q84,22 82,22 L70,22 Z"/>
   <path class="monochrome-0" d="M46,56 L54,56 L54,72 L46,72 Z"/>
   <path class="monochrome-0" d="M32,72 L68,72 Q74,72 74,78 L74,84 Q74,90 68,90 L32,90 Q26,90 26,84 L26,78 Q26,72 32,72 Z"/>
  </g>
  <g id="Regular-L" transform="matrix(1 0 0 1 100 330)">
   <path class="monochrome-0" d="M30,10 L70,10 L70,38 Q70,58 50,58 Q30,58 30,38 Z"/>
   <path class="monochrome-0" d="M30,14 L18,14 Q8,14 8,24 Q8,44 30,48 L30,40 Q16,37 16,24 Q16,22 18,22 L30,22 Z"/>
   <path class="monochrome-0" d="M70,14 L82,14 Q92,14 92,24 Q92,44 70,48 L70,40 Q84,37 84,24 Q84,22 82,22 L70,22 Z"/>
   <path class="monochrome-0" d="M46,56 L54,56 L54,72 L46,72 Z"/>
   <path class="monochrome-0" d="M32,72 L68,72 Q74,72 74,78 L74,84 Q74,90 68,90 L32,90 Q26,90 26,84 L26,78 Q26,72 32,72 Z"/>
  </g>
 </g>
</svg>
