<?xml version="1.0" encoding="UTF-8"?>
<svg width="300" height="500" viewBox="0 0 300 500" xmlns="http://www.w3.org/2000/svg">
 <g id="Notes">
 </g>
 <g id="Guides">
  <line id="Capline-S" x1="0" y1="10" x2="300" y2="10" stroke="#27AAE1" stroke-width="0.5"/>
  <line id="Baseline-S" x1="0" y1="110" x2="300" y2="110" stroke="#27AAE1" stroke-width="0.5"/>
  <line id="Capline-M" x1="0" y1="170" x2="300" y2="170" stroke="#27AAE1" stroke-width="0.5"/>
  <line id="Baseline-M" x1="0" y1="270" x2="300" y2="270" stroke="#27AAE1" stroke-width="0.5"/>
  <line id="Capline-L" x1="0" y1="330" x2="300" y2="330" stroke="#27AAE1" stroke-width="0.5"/>
  <line id="Baseline-L" x1="0" y1="430" x2="300" y2="430" stroke="#27AAE1" stroke-width="0.5"/>
 </g>
 <g id="Symbols">
  <g id="Regular-S" transform="matrix(1 0 0 1 100 10)">
   <path class="monochrome-0" d="M22,10 L78,10 Q90,10 90,22 L90,34 Q90,46 78,46 L22,46 Q10,46 10,34 L10,22 Q10,10 22,10 Z"/>
   <path class="monochrome-0" d="M22,54 L78,54 Q90,54 90,66 L90,78 Q90,90 78,90 L22,90 Q10,90 10,78 L10,66 Q10,54 22,54 Z"/>
  </g>
  <g id="Regular-M" transform="matrix(1 0 0 1 100 170)">
   <path class="monochrome-0" d="M22,10 L78,10 Q90,10 90,22 L90,34 Q90,46 78,46 L22,46 Q10,46 10,34 L10,22 Q10,10 22,10 Z"/>
   <path class="monochrome-0" d="M22,54 L78,54 Q90,54 90,66 L90,78 Q90,90 78,90 L22,90 Q10,90 10,78 L10,66 Q10,54 22,54 Z"/>
  </g>
  <g id="Regular-L" transform="matrix(1 0 0 1 100 330)">
   <path class="monochrome-0" d="M22,10 L78,10 Q90,10 90,22 L90,34 Q90,46 78,46 L22,46 Q10,46 10,34 L10,22 Q10,10 22,10 Z"/>
   <path class="monochrome-0" d="M22,54 L78,54 Q90,54 90,66 L90,78 Q90,90 78,90 L22,90 Q10,90 10,78 L10,66 Q10,54 22,54 Z"/>
  </g>
 </g>
</svg>
