<?xml version="1.0" encoding="UTF-8"?>
<svg width="300" height="500" viewBox="0 0 300 500" xmlns="http://www.w3.org/2000/svg">
 <g id="Notes">
 </g>
 <g id="Guides">
  <line id="Capline-S" x1="0" y1="10" x2="300" y2="10" stroke="#27AAE1" stroke-width="0.5"/>
  <line id="Baseline-S" x1="0" y1="110" x2="300" y2="110" stroke="#27AAE1" stroke-width="0.5"/>
  <line id="Capline-M" x1="0" y1="170" x2="300" y2="170" stroke="#27AAE1" stroke-width="0.5"/>
  <line id="Baseline-M" x1="0" y1="270" x2="300" y2="270" stroke="#27AAE1" stroke-width="0.5"/>
  <line id="Capline-L" x1="0" y1="330" x2="300" y2="330" stroke="#27AAE1" stroke-width="0.5"/>
  <line id="Baseline-L" x1="0" y1="430" x2="300" y2="430" stroke="#27AAE1" stroke-width="0.5"/>
 </g>
 <g id="Symbols">
  <g id="Regular-S" transform="matrix(1 0 0 1 100 10)">
   <path class="monochrome-0" d="M50,16 L88,32 L50,48 L12,32 Z"/>
   <path class="monochrome-0" d="M50,34 L88,50 L50,66 L12,50 Z"/>
   <path class="monochrome-0" d="M50,52 L88,68 L50,84 L12,68 Z"/>
  </g>
  <g id="Regular-M" transform="matrix(1 0 0 1 100 170)">
   <path class="monochrome-0" d="M50,16 L88,32 L50,48 L12,32 Z"/>
   <path class="monochrome-0" d="M50,34 L88,50 L50,66 L12,50 Z"/>
   <path class="monochrome-0" d="M50,52 L88,68 L50,84 L12,68 Z"/>
  </g>
  <g id="Regular-L" transform="matrix(1 0 0 1 100 330)">
   <path class="monochrome-0" d="M50,16 L88,32 L50,48 L12,32 Z"/>
   <path class="monochrome-0" d="M50,34 L88,50 L50,66 L12,50 Z"/>
   <path class="monochrome-0" d="M50,52 L88,68 L50,84 L12,68 Z"/>
  </g>
 </g>
</svg>
